<svg width="21" height="21" viewBox="0 0 21 21" fill="none" xmlns="http://www.w3.org/2000/svg">
<g clip-path="url(#clip0_9_54)">
<path d="M10.5 1.96875C8.23737 1.96875 6.06742 2.86758 4.4675 4.4675C2.86758 6.06742 1.96875 8.23737 1.96875 10.5C1.96875 12.7626 2.86758 14.9326 4.4675 16.5325C6.06742 18.1324 8.23737 19.0312 10.5 19.0312C12.7626 19.0312 14.9326 18.1324 16.5325 16.5325C18.1324 14.9326 19.0312 12.7626 19.0312 10.5C19.0312 8.23737 18.1324 6.06742 16.5325 4.4675C14.9326 2.86758 12.7626 1.96875 10.5 1.96875ZM0 10.5C0 7.71523 1.10625 5.04451 3.07538 3.07538C5.04451 1.10625 7.71523 0 10.5 0C13.2848 0 15.9555 1.10625 17.9246 3.07538C19.8938 5.04451 21 7.71523 21 10.5C21 13.2848 19.8938 15.9555 17.9246 17.9246C15.9555 19.8938 13.2848 21 10.5 21C7.71523 21 5.04451 19.8938 3.07538 17.9246C1.10625 15.9555 0 13.2848 0 10.5Z" fill="#9F9F9F"/>
<path d="M10.5 4.26562C10.7611 4.26562 11.0115 4.36934 11.1961 4.55394C11.3807 4.73855 11.4844 4.98893 11.4844 5.25V9.51562H14.4375C14.6986 9.51562 14.949 9.61934 15.1336 9.80394C15.3182 9.98855 15.4219 10.2389 15.4219 10.5C15.4219 10.7611 15.3182 11.0115 15.1336 11.1961C14.949 11.3807 14.6986 11.4844 14.4375 11.4844H9.51562V5.25C9.51562 4.98893 9.61934 4.73855 9.80394 4.55394C9.98855 4.36934 10.2389 4.26563 10.5 4.26562Z" fill="#9F9F9F"/>
</g>
<defs>
<clipPath id="clip0_9_54">
<rect width="21" height="21" fill="white"/>
</clipPath>
</defs>
</svg>
