<svg width="31" height="31" viewBox="0 0 31 31" fill="none" xmlns="http://www.w3.org/2000/svg">
<path d="M27.125 25.8333C27.125 26.1759 26.9889 26.5044 26.7467 26.7467C26.5044 26.9889 26.1759 27.125 25.8333 27.125H5.16667C4.8241 27.125 4.49556 26.9889 4.25332 26.7467C4.01109 26.5044 3.875 26.1759 3.875 25.8333V12.2579C3.87486 12.0611 3.91971 11.8668 4.00612 11.69C4.09254 11.5131 4.21822 11.3583 4.37358 11.2375L14.7069 3.20074C14.9337 3.02435 15.2127 2.92859 15.5 2.92859C15.7873 2.92859 16.0663 3.02435 16.2931 3.20074L26.6264 11.2375C26.7818 11.3583 26.9075 11.5131 26.9939 11.69C27.0803 11.8668 27.1251 12.0611 27.125 12.2579V25.8333ZM24.5417 24.5417V12.8882L15.5 5.8564L6.45833 12.8882V24.5417H24.5417Z" fill="white"/>
</svg>
