<svg width="19" height="19" viewBox="0 0 19 19" fill="none" xmlns="http://www.w3.org/2000/svg">
<path d="M1.10833 0C0.814385 0 0.532476 0.100089 0.324623 0.278248C0.11677 0.456408 0 0.698044 0 0.95V18.05C0 18.302 0.11677 18.5436 0.324623 18.7218C0.532476 18.8999 0.814385 19 1.10833 19H5.225C5.51895 19 5.80086 18.8999 6.00871 18.7218C6.21656 18.5436 6.33333 18.302 6.33333 18.05V0.95C6.33333 0.698044 6.21656 0.456408 6.00871 0.278248C5.80086 0.100089 5.51895 0 5.225 0H1.10833ZM13.775 0C13.4811 0 13.1991 0.100089 12.9913 0.278248C12.7834 0.456408 12.6667 0.698044 12.6667 0.95V18.05C12.6667 18.302 12.7834 18.5436 12.9913 18.7218C13.1991 18.8999 13.4811 19 13.775 19H17.8917C18.1856 19 18.4675 18.8999 18.6754 18.7218C18.8832 18.5436 19 18.302 19 18.05V0.95C19 0.698044 18.8832 0.456408 18.6754 0.278248C18.4675 0.100089 18.1856 0 17.8917 0H13.775Z" fill="#5EF05B"/>
</svg>
