<svg width="22" height="25" viewBox="0 0 22 25" fill="none" xmlns="http://www.w3.org/2000/svg">
<path d="M7.83097e-07 1.25359C-0.000245228 1.03366 0.0574763 0.817553 0.167358 0.627002C0.277239 0.436451 0.435404 0.278179 0.625939 0.168111C0.816474 0.058043 1.03266 6.13881e-05 1.25274 4.87193e-08C1.47282 -6.12906e-05 1.68904 0.0577997 1.87964 0.167761L21.3741 11.416C21.5644 11.5259 21.7225 11.684 21.8323 11.8742C21.9422 12.0645 22 12.2803 22 12.5C22 12.7197 21.9422 12.9355 21.8323 13.1258C21.7225 13.316 21.5644 13.4741 21.3741 13.584L1.87964 24.8322C1.68917 24.9421 1.47312 25 1.25319 25C1.03326 25 0.817197 24.9422 0.626714 24.8323C0.436232 24.7225 0.278039 24.5645 0.168029 24.3742C0.0580198 24.1839 6.92012e-05 23.968 7.83097e-07 23.7482V1.25359Z" fill="#5EF05B"/>
</svg>
