<svg width="24" height="24" viewBox="0 0 24 24" fill="none" xmlns="http://www.w3.org/2000/svg">
<path d="M22.875 12C22.875 12.2984 22.7565 12.5845 22.5455 12.7955C22.3345 13.0065 22.0484 13.125 21.75 13.125H13.125V21.75C13.125 22.0484 13.0065 22.3345 12.7955 22.5455C12.5845 22.7565 12.2984 22.875 12 22.875C11.7016 22.875 11.4155 22.7565 11.2045 22.5455C10.9935 22.3345 10.875 22.0484 10.875 21.75V13.125H2.25C1.95163 13.125 1.66548 13.0065 1.4545 12.7955C1.24353 12.5845 1.125 12.2984 1.125 12C1.125 11.7016 1.24353 11.4155 1.4545 11.2045C1.66548 10.9935 1.95163 10.875 2.25 10.875H10.875V2.25C10.875 1.95163 10.9935 1.66548 11.2045 1.4545C11.4155 1.24353 11.7016 1.125 12 1.125C12.2984 1.125 12.5845 1.24353 12.7955 1.4545C13.0065 1.66548 13.125 1.95163 13.125 2.25V10.875H21.75C22.0484 10.875 22.3345 10.9935 22.5455 11.2045C22.7565 11.4155 22.875 11.7016 22.875 12Z" fill="white"/>
</svg>
