<svg width="31" height="31" viewBox="0 0 31 31" fill="none" xmlns="http://www.w3.org/2000/svg">
<path d="M15.5 15.5C16.8412 15.5 18.1523 15.1023 19.2675 14.3572C20.3826 13.612 21.2518 12.5529 21.7651 11.3138C22.2783 10.0747 22.4126 8.71123 22.151 7.3958C21.8893 6.08036 21.2434 4.87206 20.2951 3.92369C19.3467 2.97531 18.1384 2.32946 16.823 2.0678C15.5075 1.80615 14.144 1.94044 12.9049 2.45369C11.6658 2.96695 10.6067 3.83612 9.8616 4.95129C9.11646 6.06646 8.71875 7.37755 8.71875 8.71875C8.71875 10.5173 9.4332 12.2421 10.7049 13.5138C11.9767 14.7856 13.7015 15.5 15.5 15.5ZM15.5 3.875C16.458 3.875 17.3945 4.15908 18.191 4.69132C18.9876 5.22356 19.6084 5.98005 19.975 6.86513C20.3417 7.75021 20.4376 8.72413 20.2507 9.66372C20.0638 10.6033 19.6025 11.4664 18.925 12.1438C18.2476 12.8212 17.3846 13.2825 16.445 13.4694C15.5054 13.6563 14.5315 13.5604 13.6464 13.1938C12.7613 12.8272 12.0048 12.2063 11.4726 11.4098C10.9403 10.6132 10.6562 9.67676 10.6562 8.71875C10.6563 7.43411 11.1666 6.20208 12.075 5.2937C12.9833 4.38533 14.2154 3.875 15.5 3.875Z" fill="white"/>
<path d="M16.4688 17.4375H14.5312C11.705 17.4375 8.99458 18.5602 6.99614 20.5586C4.99771 22.5571 3.875 25.2675 3.875 28.0938C3.875 28.3507 3.97706 28.5971 4.15874 28.7788C4.34042 28.9604 4.58682 29.0625 4.84375 29.0625H26.1562C26.4132 29.0625 26.6596 28.9604 26.8413 28.7788C27.0229 28.5971 27.125 28.3507 27.125 28.0938C27.125 25.2675 26.0023 22.5571 24.0039 20.5586C22.0054 18.5602 19.295 17.4375 16.4688 17.4375ZM5.87062 27.125C6.10884 24.9944 7.12371 23.0262 8.72135 21.5966C10.319 20.1669 12.3873 19.376 14.5312 19.375H16.4688C18.6127 19.376 20.681 20.1669 22.2787 21.5966C23.8763 23.0262 24.8912 24.9944 25.1294 27.125H5.87062Z" fill="white"/>
</svg>
